<svg width="25" height="25" viewBox="0 0 25 25" fill="none" xmlns="http://www.w3.org/2000/svg">
<path d="M3.15534 20.6311V18.2039H5.58252V9.70874C5.58252 9.04126 5.66869 8.3839 5.84102 7.73665C6.01254 7.0894 6.27023 6.47249 6.61408 5.88592L8.43447 7.70631C8.29288 8.02993 8.18689 8.35841 8.1165 8.69175C8.04531 9.02589 8.00971 9.36489 8.00971 9.70874V18.2039H15.534L0 2.6699L1.69903 0.970874L24.0291 23.301L22.3301 25L17.9005 20.6311H3.15534ZM20.1456 15.9587L17.7184 13.5316V9.70874C17.7184 8.37379 17.2431 7.23099 16.2925 6.28034C15.3418 5.32969 14.199 4.85437 12.8641 4.85437C12.318 4.85437 11.8074 4.94053 11.3325 5.11286C10.8568 5.28438 10.4167 5.52184 10.0121 5.82524L8.25243 4.06553C8.65696 3.76214 9.09183 3.48382 9.55704 3.23058C10.0222 2.97816 10.5178 2.79126 11.0437 2.6699V1.82039C11.0437 1.31472 11.2209 0.885113 11.5752 0.531553C11.9288 0.177184 12.3584 0 12.8641 0C13.3697 0 13.7994 0.177184 14.1529 0.531553C14.5073 0.885113 14.6845 1.31472 14.6845 1.82039V2.6699C16.2621 3.07443 17.5667 3.91869 18.5983 5.20267C19.6299 6.48746 20.1456 7.98948 20.1456 9.70874V15.9587ZM12.8641 24.2718C12.1966 24.2718 11.6254 24.0344 11.1505 23.5595C10.6748 23.0837 10.4369 22.5121 10.4369 21.8447H15.2913C15.2913 22.5121 15.0538 23.0837 14.5789 23.5595C14.1032 24.0344 13.5316 24.2718 12.8641 24.2718Z" fill="black"/>
</svg>
