<svg width="32" height="35" viewBox="0 0 32 35" fill="none" xmlns="http://www.w3.org/2000/svg">
<path d="M27.0625 24.2308V24.4515L27.2256 24.6003L31 28.0413V29.1154H0.5V28.0413L4.27436 24.6003L4.4375 24.4515V24.2308V15.2564C4.4375 9.93754 7.52663 5.56683 12.9028 4.40147L13.2969 4.31605V3.91282V2.69231C13.2969 1.52121 14.3476 0.5 15.75 0.5C17.1524 0.5 18.2031 1.52121 18.2031 2.69231V3.91282V4.31635L18.5976 4.40155C23.9919 5.56676 27.0625 9.95412 27.0625 15.2564V24.2308ZM23.625 26.5256H24.125V26.0256V15.2564C24.125 12.9204 23.3443 10.7749 21.8925 9.20881C20.4363 7.63786 18.3318 6.67949 15.75 6.67949C13.1682 6.67949 11.0637 7.63786 9.60749 9.20881C8.15575 10.7749 7.375 12.9204 7.375 15.2564V26.0256V26.5256H7.875H23.625ZM19.1414 31.9103C18.8753 33.3444 17.4861 34.5 15.75 34.5C14.0139 34.5 12.6247 33.3444 12.3586 31.9103H19.1414Z" fill="black" stroke="black"/>
</svg>
