<svg width="26" height="25" viewBox="0 0 26 25" fill="none" xmlns="http://www.w3.org/2000/svg">
<path d="M12.7821 25C14.1923 25 15.3462 23.8462 15.3462 22.4359H10.2179C10.2179 23.8462 11.3718 25 12.7821 25ZM20.4744 17.3077V10.8974C20.4744 6.96154 18.3846 3.66667 14.7051 2.79487V1.92308C14.7051 0.858974 13.8462 0 12.7821 0C11.7179 0 10.859 0.858974 10.859 1.92308V2.79487C7.19231 3.66667 5.08974 6.94872 5.08974 10.8974V17.3077L2.52564 19.8718V21.1538H23.0385V19.8718L20.4744 17.3077ZM17.9103 18.5897H7.65385V10.8974C7.65385 7.71795 9.58974 5.12821 12.7821 5.12821C15.9744 5.12821 17.9103 7.71795 17.9103 10.8974V18.5897ZM7.11539 2.02564L5.28205 0.192308C2.20513 2.53846 0.179487 6.15385 0 10.2564H2.5641C2.75641 6.85897 4.5 3.88462 7.11539 2.02564ZM23 10.2564H25.5641C25.3718 6.15385 23.3462 2.53846 20.2821 0.192308L18.4615 2.02564C21.0513 3.88462 22.8077 6.85897 23 10.2564Z" fill="black"/>
</svg>
